<svg xmlns="http://www.w3.org/2000/svg" width="48" height="48"><path d="M15.174 2.61a6.993 6.993 0 0 0-6.986 5.423l-1.11 4.805a18.978 18.978 0 0 1 14.309-8.942l-4.805-1.109a7.05 7.05 0 0 0-1.408-.178zM23.615 7c-7.245.161-13.854 4.98-15.957 12.314-2.588 9.026 2.631 18.44 11.656 21.028 9.025 2.588 18.44-2.63 21.028-11.656 2.588-9.026-2.63-18.44-11.656-21.028A16.998 16.998 0 0 0 23.616 7zm11.547.078a18.978 18.978 0 0 1 8.942 14.309l1.109-4.805a6.993 6.993 0 0 0-5.246-8.395l-4.805-1.109zm-14.97 5.512a3.998 3.998 0 1 1-.61 7.976 3.998 3.998 0 0 1 .61-7.976zm11.535 3.308a3.998 3.998 0 1 1-1.408 7.832 3.998 3.998 0 0 1 1.408-7.832zm-7.692 6.104a1.997 1.997 0 0 1 1.963 2.033 1.997 1.997 0 0 1-2.033 1.963 1.997 1.997 0 0 1-1.963-2.033 1.997 1.997 0 0 1 2.033-1.963zm-7.15 2.125a4 4 0 1 1-.611 7.975 4 4 0 0 1 .61-7.975zM3.896 26.615 2.787 31.42a6.995 6.995 0 0 0 5.246 8.394l4.805 1.11a18.98 18.98 0 0 1-8.942-14.309zm24.522.819a3.996 3.996 0 0 1 3.54 5.09 3.999 3.999 0 1 1-3.54-5.09zm12.506 7.728a18.98 18.98 0 0 1-14.309 8.942l4.805 1.109a6.995 6.995 0 0 0 8.394-5.246l1.11-4.805z" fill="gray"/></svg>