<svg version="1.1" id="Capa_1" xmlns="http://www.w3.org/2000/svg" x="0" y="0" width="435.244" height="435.244" style="enable-background:new 0 0 435.244 435.244" xml:space="preserve"><path style="fill:#030303" d="M75.146 425.343v-96.354C27.281 294.43 0 244.745 0 191.603 0 91.414 97.624 9.901 217.622 9.901s217.622 81.513 217.622 181.701c0 100.186-97.624 181.701-217.622 181.701a259.798 259.798 0 0 1-42.631-3.539l-99.845 55.579zM217.622 39.177c-103.854 0-188.346 68.379-188.346 152.425 0 45.561 25.014 88.418 68.636 117.568l6.504 4.346v62.022l65.497-36.452 5.2.973a231.15 231.15 0 0 0 42.508 3.968c103.856 0 188.346-68.376 188.346-152.425.001-84.046-84.488-152.425-188.345-152.425z"/></svg>